<svg width="20" height="20" viewBox="0 0 20 20" fill="none" xmlns="http://www.w3.org/2000/svg">
<path d="M1.5 6C1.5 5.72386 1.72386 5.5 2 5.5H18C18.2761 5.5 18.5 5.72386 18.5 6V17C18.5 17.2761 18.2761 17.5 18 17.5H2C1.72386 17.5 1.5 17.2761 1.5 17V6Z" fill="#C8BEF6" stroke="#3A4571"/>
<path d="M3.5 4C3.5 3.72386 3.72386 3.5 4 3.5H8.47288C8.64527 3.5 8.80551 3.58881 8.89688 3.735L9.576 4.8216C9.77183 5.13494 10.2282 5.13494 10.424 4.8216L11.1031 3.735C11.1945 3.58881 11.3547 3.5 11.5271 3.5H16C16.2761 3.5 16.5 3.72386 16.5 4V15C16.5 15.2761 16.2761 15.5 16 15.5H4C3.72386 15.5 3.5 15.2761 3.5 15V4Z" fill="white" stroke="#3A4571"/>
<rect x="5" y="7" width="3.5" height="1" fill="#3A4571"/>
<rect x="11.5" y="7" width="3.5" height="1" fill="#3A4571"/>
<rect x="5" y="9" width="3.5" height="1" fill="#3A4571"/>
<rect x="11.5" y="9" width="3.5" height="1" fill="#3A4571"/>
<rect x="5" y="11" width="3.5" height="1" fill="#3A4571"/>
<rect x="11.5" y="11" width="3.5" height="1" fill="#3A4571"/>
<path d="M10 7L10 13" stroke="#3A4571"/>
</svg>
