<svg width="14" height="15" viewBox="0 0 14 15" fill="none" xmlns="http://www.w3.org/2000/svg">
<mask id="path-1-inside-1_7001_47252" fill="white">
<path d="M7 1C7.27639 1.00006 7.52296 1.17466 7.61426 1.43555L9.18359 5.91992L12.5723 7.28906C12.8309 7.39353 13 7.64487 13 7.92383C13 8.20277 12.8309 8.45413 12.5723 8.55859L9.18359 9.92676L7.61426 14.4121C7.52295 14.673 7.27638 14.8476 7 14.8477C6.72359 14.8477 6.47709 14.673 6.38574 14.4121L4.81543 9.92676L1.42773 8.55859C1.16915 8.45411 1.00002 8.20273 1 7.92383C1 7.64492 1.16915 7.39356 1.42773 7.28906L4.81543 5.91992L6.38574 1.43555C6.47708 1.17466 6.72358 1 7 1Z"/>
</mask>
<path d="M7 1L7.0002 0H7V1ZM7.61426 1.43555L8.55813 1.10523L8.55812 1.10522L7.61426 1.43555ZM9.18359 5.91992L8.23972 6.25024L8.38925 6.67752L8.80898 6.8471L9.18359 5.91992ZM12.5723 7.28906L12.1977 8.21624L12.1978 8.21629L12.5723 7.28906ZM13 7.92383L14 7.92388V7.92383H13ZM12.5723 8.55859L12.9466 9.48587L12.9468 9.48583L12.5723 8.55859ZM9.18359 9.92676L8.80921 8.99948L8.38926 9.16904L8.2397 9.59651L9.18359 9.92676ZM7.61426 14.4121L8.55812 14.7425L8.55815 14.7424L7.61426 14.4121ZM7 14.8477V15.8477H7.0002L7 14.8477ZM6.38574 14.4121L5.44191 14.7425L5.44193 14.7426L6.38574 14.4121ZM4.81543 9.92676L5.75926 9.59632L5.60967 9.16905L5.18991 8.99952L4.81543 9.92676ZM1.42773 8.55859L1.0531 9.48577L1.05326 9.48583L1.42773 8.55859ZM1 7.92383H0V7.92388L1 7.92383ZM1.42773 7.28906L1.80241 8.21622L1.80244 8.21621L1.42773 7.28906ZM4.81543 5.91992L5.19014 6.84707L5.60968 6.67751L5.75924 6.25042L4.81543 5.91992ZM6.38574 1.43555L7.32955 1.76604L7.32957 1.76599L6.38574 1.43555ZM7 1L6.9998 2C6.85223 1.99997 6.71974 1.90689 6.67039 1.76587L7.61426 1.43555L8.55812 1.10522C8.32617 0.442436 7.70055 0.000141144 7.0002 0L7 1ZM7.61426 1.43555L6.67039 1.76586L8.23972 6.25024L9.18359 5.91992L10.1275 5.58961L8.55813 1.10523L7.61426 1.43555ZM9.18359 5.91992L8.80898 6.8471L12.1977 8.21624L12.5723 7.28906L12.9469 6.36188L9.55821 4.99274L9.18359 5.91992ZM12.5723 7.28906L12.1978 8.21629C12.0773 8.16764 12 8.05136 12 7.92383H13H14C14 7.23838 13.5845 6.61942 12.9468 6.36183L12.5723 7.28906ZM13 7.92383L12 7.92377C12 7.79631 12.0772 7.68004 12.1978 7.63136L12.5723 8.55859L12.9468 9.48583C13.5846 9.22823 14 8.60923 14 7.92388L13 7.92383ZM12.5723 8.55859L12.1979 7.63132L8.80921 8.99948L9.18359 9.92676L9.55798 10.854L12.9466 9.48587L12.5723 8.55859ZM9.18359 9.92676L8.2397 9.59651L6.67036 14.0819L7.61426 14.4121L8.55815 14.7424L10.1275 10.257L9.18359 9.92676ZM7.61426 14.4121L6.6704 14.0818C6.71974 13.9408 6.85221 13.8477 6.9998 13.8477L7 14.8477L7.0002 15.8477C7.70056 15.8475 8.32616 15.4052 8.55812 14.7425L7.61426 14.4121ZM7 14.8477V13.8477C7.14799 13.8477 7.28032 13.941 7.32956 14.0816L6.38574 14.4121L5.44193 14.7426C5.67385 15.4049 6.29919 15.8477 7 15.8477V14.8477ZM6.38574 14.4121L7.32957 14.0817L5.75926 9.59632L4.81543 9.92676L3.8716 10.2572L5.44191 14.7425L6.38574 14.4121ZM4.81543 9.92676L5.18991 8.99952L1.80221 7.63136L1.42773 8.55859L1.05326 9.48583L4.44095 10.854L4.81543 9.92676ZM1.42773 8.55859L1.80237 7.63142C1.9227 7.68004 1.99999 7.79614 2 7.92377L1 7.92383L0 7.92388C3.80874e-05 8.60932 0.415594 9.22817 1.0531 9.48577L1.42773 8.55859ZM1 7.92383H2C2 8.05158 1.92264 8.16763 1.80241 8.21622L1.42773 7.28906L1.05306 6.36191C0.415667 6.61948 0 7.23826 0 7.92383H1ZM1.42773 7.28906L1.80244 8.21621L5.19014 6.84707L4.81543 5.91992L4.44072 4.99278L1.05303 6.36192L1.42773 7.28906ZM4.81543 5.91992L5.75924 6.25042L7.32955 1.76604L6.38574 1.43555L5.44194 1.10505L3.87162 5.58943L4.81543 5.91992ZM6.38574 1.43555L7.32957 1.76599C7.28032 1.90665 7.14796 2 7 2V1V0C6.29921 0 5.67384 0.442677 5.44192 1.10511L6.38574 1.43555Z" fill="#E4E9ED" mask="url(#path-1-inside-1_7001_47252)"/>
</svg>
