<svg width="153" height="28" viewBox="0 0 153 28" fill="none" xmlns="http://www.w3.org/2000/svg">
<path d="M2 0.5H76.5V27.5H2C1.17157 27.5 0.5 26.8284 0.5 26V2L0.507812 1.84668C0.58461 1.09028 1.22334 0.5 2 0.5Z" fill="#E6F1FA"/>
<path d="M2 0.5H76.5V27.5H2C1.17157 27.5 0.5 26.8284 0.5 26V2L0.507812 1.84668C0.58461 1.09028 1.22334 0.5 2 0.5Z" stroke="#CCD1D6"/>
<path d="M23.6211 15.2949V16.3613H18.6719V20.1758H17.3867V16.3613H12.4512V15.2949H23.6211ZM22.5547 9.38867V10.4414H18.6855C18.7607 11.7949 20.6064 13.1143 22.9375 13.4082L22.4727 14.4473C20.5039 14.1738 18.8291 13.251 18.043 12C17.2432 13.2646 15.5547 14.1738 13.5859 14.4473L13.1074 13.4082C15.4385 13.1143 17.2979 11.8223 17.3867 10.4414H13.5039V9.38867H17.3867V7.91211H18.6719V9.38867H22.5547ZM35.748 14.8301V15.8965H24.5371V14.8301H29.5V13.6133H25.9727V10.4824H33.041V9.29297H25.9453V8.26758H34.3398V11.4258H27.2578V12.6152H34.5859V13.6133H30.7852V14.8301H35.748ZM34.5996 19.041V20.0938H26V16.6484H27.2988V19.041H34.5996ZM40.8887 14.3242C40.9023 11.7402 41.5996 9.59375 42.8164 7.76172H44.0605C43.1582 9.12891 42.2969 11.877 42.2969 14.3242C42.2969 16.7578 43.1582 19.5195 44.0605 20.873H42.8164C41.5996 19.041 40.9023 16.8945 40.8887 14.3242ZM46.3984 16.4023C46.4805 17.332 47.2734 17.8379 48.2852 17.8379C49.3652 17.8379 50.1992 17.25 50.1992 16.1426C50.1992 15.1309 49.543 14.3105 47.9844 14.3105H47.0957V13.1895L49.3789 10.4824V10.3867H45.373V9.10156H51.3203V10.168L48.7773 13.1758V13.2715C50.541 13.4082 51.6758 14.666 51.6621 16.1836C51.6758 17.9062 50.2539 19.1367 48.2715 19.1367C46.4395 19.1367 45.0039 18.084 44.9082 16.4023H46.3984ZM56.3652 19.1367C54.1914 19.1367 52.9473 17.4277 52.9473 14.4336V13.668C52.9473 10.6738 54.1914 8.96484 56.3652 8.96484C58.5391 8.96484 59.7695 10.6738 59.7695 13.668V14.4336C59.7695 17.4277 58.5391 19.1367 56.3652 19.1367ZM56.3652 17.8516C57.6777 17.8516 58.334 16.7031 58.334 14.4336V13.668C58.334 11.3984 57.6777 10.25 56.3652 10.25C55.0527 10.25 54.3965 11.3984 54.3965 13.668V14.4336C54.3965 16.7031 55.0527 17.8516 56.3652 17.8516ZM63.7754 14.3242C63.7617 16.8945 63.0645 19.041 61.8477 20.873H60.6035C61.5059 19.5195 62.3672 16.7578 62.3672 14.3242C62.3672 11.877 61.5059 9.12891 60.6035 7.76172H61.8477C63.0645 9.59375 63.7617 11.7402 63.7754 14.3242Z" fill="#0077C8"/>
<path d="M151 0.5C151.828 0.5 152.5 1.17157 152.5 2V26C152.5 26.8284 151.828 27.5 151 27.5H76.5V0.5H151Z" fill="white"/>
<path d="M151 0.5C151.828 0.5 152.5 1.17157 152.5 2V26C152.5 26.8284 151.828 27.5 151 27.5H76.5V0.5H151Z" stroke="#DADFE4"/>
<path d="M95.7656 9.15625V10.1953H88.4648V9.15625H91.4727V7.85742H92.7715V9.15625H95.7656ZM92.1152 10.7422C93.8789 10.7559 95.082 11.6309 95.082 12.9707C95.082 14.3105 93.8789 15.1992 92.1152 15.1992C90.3379 15.1992 89.1348 14.3105 89.1348 12.9707C89.1348 11.6309 90.3379 10.7559 92.1152 10.7422ZM92.1152 11.7402C91.0762 11.7402 90.3789 12.2188 90.3926 12.9707C90.3789 13.7363 91.0762 14.1875 92.1152 14.1875C93.1543 14.1875 93.8516 13.7363 93.8652 12.9707C93.8516 12.2188 93.1543 11.7402 92.1152 11.7402ZM98.0762 7.91211V11.2344H99.8535V12.3145H98.0762V15.5684H96.7773V7.91211H98.0762ZM98.0762 16.1973V20.1621H96.7773V17.25H89.9824V16.1973H98.0762ZM103.217 15.2539V16.5527H108.973V15.2539H110.271V20.0117H101.932V15.2539H103.217ZM103.217 18.9727H108.973V17.5645H103.217V18.9727ZM111.721 13.4082V14.4883H100.551V13.4082H111.721ZM106.799 8.56836C106.799 9.97656 108.754 11.3438 111.105 11.6309L110.641 12.6562C108.651 12.376 106.922 11.4395 106.143 10.1406C105.343 11.4463 103.606 12.376 101.645 12.6562L101.152 11.6309C103.531 11.3301 105.473 10.0176 105.473 8.56836V8.04883H106.799V8.56836ZM116.889 14.3242C116.902 11.7402 117.6 9.59375 118.816 7.76172H120.061C119.158 9.12891 118.297 11.877 118.297 14.3242C118.297 16.7578 119.158 19.5195 120.061 20.873H118.816C117.6 19.041 116.902 16.8945 116.889 14.3242ZM121.25 19L121.236 17.9199L124.449 14.4473C125.461 13.3398 125.994 12.7109 126.008 11.8223C125.994 10.8242 125.256 10.2227 124.299 10.2227C123.301 10.2227 122.645 10.8926 122.645 11.9727H121.25C121.236 10.168 122.549 8.96484 124.34 8.96484C126.131 8.96484 127.389 10.168 127.402 11.7812C127.389 12.875 126.91 13.75 125.174 15.5957L123.273 17.6328V17.7148H127.553V19H121.25ZM132.365 19.1367C130.191 19.1367 128.947 17.4277 128.947 14.4336V13.668C128.947 10.6738 130.191 8.96484 132.365 8.96484C134.539 8.96484 135.77 10.6738 135.77 13.668V14.4336C135.77 17.4277 134.539 19.1367 132.365 19.1367ZM132.365 17.8516C133.678 17.8516 134.334 16.7031 134.334 14.4336V13.668C134.334 11.3984 133.678 10.25 132.365 10.25C131.053 10.25 130.396 11.3984 130.396 13.668V14.4336C130.396 16.7031 131.053 17.8516 132.365 17.8516ZM139.775 14.3242C139.762 16.8945 139.064 19.041 137.848 20.873H136.604C137.506 19.5195 138.367 16.7578 138.367 14.3242C138.367 11.877 137.506 9.12891 136.604 7.76172H137.848C139.064 9.59375 139.762 11.7402 139.775 14.3242Z" fill="#3C444B"/>
</svg>
