<svg width="143" height="28" viewBox="0 0 143 28" fill="none" xmlns="http://www.w3.org/2000/svg">
<path d="M4.86719 9.10156V17.7832H6.91797V19H1.20312V17.7832H3.36328V10.6055L1.20312 12.0684V10.5918L3.41797 9.10156H4.86719ZM12.1816 19.1367C10.3906 19.1367 9.06445 17.9883 8.99609 16.416H10.4316C10.5 17.2773 11.252 17.8789 12.1816 17.8789C13.2754 17.8789 14.0957 17.0312 14.082 15.8281C14.0957 14.6113 13.248 13.75 12.1133 13.7363C11.375 13.7363 10.8281 13.9688 10.5 14.6113H9.10547L9.70703 9.10156H15.0391V10.3867H10.9922L10.6777 13.1621H10.7734C11.1016 12.7793 11.7168 12.4922 12.4414 12.4922C14.2188 12.4922 15.5039 13.8867 15.5039 15.7871C15.5039 17.7422 14.1094 19.1367 12.1816 19.1367Z" fill="#565E66"/>
<path d="M20.166 8.63672L17.1992 20.4902H16.1328L19.0859 8.63672H20.166ZM22.1348 16.498C22.2305 17.4961 23.0918 18.043 24.1992 18.043C25.375 18.043 26.3047 17.4141 26.291 16.1836C26.3047 15.1035 25.6211 14.1602 23.8574 14.1602H23.0508V13.1895L25.4707 10.2773V10.1953H21.3555V9.10156H27.125V9.99023L24.541 13.1348V13.2168C26.2363 13.3125 27.5078 14.5566 27.5078 16.1973C27.5078 17.8926 26.127 19.1367 24.1719 19.1367C22.4219 19.1367 20.9863 18.1523 20.877 16.498H22.1348ZM32.2656 19.1367C30.1328 19.1367 28.9434 17.4414 28.9434 14.4336V13.668C28.9434 10.6465 30.1328 8.96484 32.2656 8.96484C34.3848 8.96484 35.5742 10.6465 35.5742 13.668V14.4336C35.5742 17.4414 34.3848 19.1367 32.2656 19.1367ZM32.2656 18.0566C33.6738 18.0566 34.3848 16.8535 34.3848 14.4473V13.668C34.3848 11.248 33.6738 10.0449 32.2656 10.0449C30.8438 10.0449 30.1465 11.248 30.1465 13.668V14.4473C30.1465 16.8535 30.8438 18.0566 32.2656 18.0566Z" fill="#767D84"/>
<path opacity="0.3" d="M47 8H48V20H47V8Z" fill="#2F363C"/>
<path d="M60 0.5H141C141.828 0.5 142.5 1.17157 142.5 2V26C142.5 26.8284 141.828 27.5 141 27.5H60C59.1716 27.5 58.5 26.8284 58.5 26V2L58.5078 1.84668C58.5846 1.09028 59.2233 0.5 60 0.5Z" fill="white"/>
<path d="M60 0.5H141C141.828 0.5 142.5 1.17157 142.5 2V26C142.5 26.8284 141.828 27.5 141 27.5H60C59.1716 27.5 58.5 26.8284 58.5 26V2L58.5078 1.84668C58.5846 1.09028 59.2233 0.5 60 0.5Z" stroke="#DADFE4"/>
<path fill-rule="evenodd" clip-rule="evenodd" d="M69 9H71.5L75 14L79 19H76.5L73 14L69 9Z" fill="#3C724B"/>
<path fill-rule="evenodd" clip-rule="evenodd" d="M76.5 9H79L75 14L71.5 19H69L73 14L76.5 9Z" fill="#3C724B"/>
<path fill-rule="evenodd" clip-rule="evenodd" d="M71 18H74V19H70L71 18Z" fill="#3C724B"/>
<path d="M95.9941 7.91211V12.6562H97.9629V13.7227H95.9941V20.1895H94.6953V7.91211H95.9941ZM92.6992 9.08789V10.1406H88.2695V16.0605C90.3271 16.0537 91.8721 15.9648 93.6152 15.6504L93.7793 16.7441C91.8652 17.0859 90.2383 17.1543 87.9551 17.1406H86.9707V9.08789H92.6992ZM109.748 14.0508V15.1035H104.895V17.4824H103.582V15.1035H98.5371V14.0508H109.748ZM108.504 18.8359V19.9023H99.9453V16.3066H101.244V18.8359H108.504ZM104.129 8.19922C106.768 8.19922 108.477 9.15625 108.477 10.6875C108.477 12.2188 106.768 13.1621 104.129 13.1621C101.504 13.1621 99.7676 12.2188 99.7676 10.6875C99.7676 9.15625 101.504 8.19922 104.129 8.19922ZM104.129 9.23828C102.338 9.23828 101.148 9.78516 101.162 10.6875C101.148 11.5762 102.338 12.1094 104.129 12.1094C105.934 12.1094 107.109 11.5762 107.109 10.6875C107.109 9.78516 105.934 9.23828 104.129 9.23828ZM121.861 17.6055V18.6992H110.65V17.6055H115.586V15.459H112.018V11.5625H119.209V9.83984H111.99V8.77344H120.494V12.6016H113.303V14.3926H120.781V15.459H116.871V17.6055H121.861ZM132.676 13.7227V14.7891H124.145V9.00586H132.566V10.0723H125.43V13.7227H132.676ZM133.961 17.4688V18.5488H122.75V17.4688H133.961Z" fill="#3C444B"/>
</svg>
